HIERARCHY
ROOT root
{
	OFFSET	0	13.1	24.9
	CHANNELS 6  Xposition Yposition Zposition Xrotation Yrotation Zrotation
	JOINT spine_1
	{
		OFFSET	0	9.99999	0
		CHANNELS 3  Xrotation Yrotation Zrotation
		JOINT spine_2
		{
			OFFSET	0	112	-10
			CHANNELS 3  Xrotation Yrotation Zrotation
			JOINT spine_3
			{
				OFFSET	0	206.5	19.3
				CHANNELS 3  Xrotation Yrotation Zrotation
				JOINT spine_4
				{
					OFFSET	0	110.4	14.6
					CHANNELS 3  Xrotation Yrotation Zrotation
					JOINT neck_1
					{
						OFFSET	0	71.8	-50.3
						CHANNELS 3  Xrotation Yrotation Zrotation
						JOINT neck_2
						{
							OFFSET	0	86.2	-25.8
							CHANNELS 3  Xrotation Yrotation Zrotation
							JOINT head_ee
							{
								OFFSET	0	179.8	-8.7
								CHANNELS 3  Xrotation Yrotation Zrotation
								End Site
								{
									OFFSET	1	0	0
								}
							}
						}
					}
					JOINT left_clavicle
					{
						OFFSET	-43.2	22.4	-70.8
						CHANNELS 3  Xrotation Yrotation Zrotation
						JOINT left_shoulder
						{
							OFFSET	-93.9	-5.79999	48.7
							CHANNELS 3  Xrotation Yrotation Zrotation
							JOINT left_elbow
							{
								OFFSET	-291.4	-30.8	15.2
								CHANNELS 3  Xrotation Yrotation Zrotation
								JOINT left_lowarm_twist
								{
									OFFSET	-110.7	-3.89999	13.6
									CHANNELS 3  Xrotation Yrotation Zrotation
									JOINT left_hand
									{
										OFFSET	-110.7	-3.89999	13.6
										CHANNELS 3  Xrotation Yrotation Zrotation
										JOINT left_ee
										{
											OFFSET	-80.8	-5.10001	12.1
											CHANNELS 3  Xrotation Yrotation Zrotation
											End Site
											{
												OFFSET	1	0	0
											}
										}
									}
								}
							}
						}
					}
					JOINT right_clavicle
					{
						OFFSET	43.2	22.4	-70.8
						CHANNELS 3  Xrotation Yrotation Zrotation
						JOINT right_shoulder
						{
							OFFSET	93.9	-5.79999	48.7
							CHANNELS 3  Xrotation Yrotation Zrotation
							JOINT right_elbow
							{
								OFFSET	291.4	-30.8	15.2
								CHANNELS 3  Xrotation Yrotation Zrotation
								JOINT right_lowarm_twist
								{
									OFFSET	110.7	-3.89999	13.6
									CHANNELS 3  Xrotation Yrotation Zrotation
									JOINT right_hand
									{
										OFFSET	110.7	-3.89999	13.6
										CHANNELS 3  Xrotation Yrotation Zrotation
										JOINT right_ee
										{
											OFFSET	80.8	-5.10001	12.1
											CHANNELS 3  Xrotation Yrotation Zrotation
											End Site
											{
												OFFSET	1	0	0
											}
										}
									}
								}
							}
						}
					}
				}
			}
		}
	}
	JOINT left_hip
	{
		OFFSET	-82.8	-127.5	0.300001
		CHANNELS 3  Xrotation Yrotation Zrotation
		JOINT left_knee
		{
			OFFSET	-28.2	-396.7	2.2
			CHANNELS 3  Xrotation Yrotation Zrotation
			JOINT left_ankle
			{
				OFFSET	-11.7	-411.3	35.4
				CHANNELS 3  Xrotation Yrotation Zrotation
				JOINT left_toes
				{
					OFFSET	0	-60	-88.6
					CHANNELS 3  Xrotation Yrotation Zrotation
					JOINT left_foot_ee
					{
						OFFSET	-22.5	-16.5	-42.2
						CHANNELS 3  Xrotation Yrotation Zrotation
						End Site
						{
							OFFSET	1	0	0
						}
					}
				}
			}
		}
	}
	JOINT right_hip
	{
		OFFSET	82.8	-127.5	0.300001
		CHANNELS 3  Xrotation Yrotation Zrotation
		JOINT right_knee
		{
			OFFSET	28.2	-396.7	2.2
			CHANNELS 3  Xrotation Yrotation Zrotation
			JOINT right_ankle
			{
				OFFSET	11.7	-411.3	35.4
				CHANNELS 3  Xrotation Yrotation Zrotation
				JOINT right_toes
				{
					OFFSET	0	-60	-88.6
					CHANNELS 3  Xrotation Yrotation Zrotation
					JOINT right_foot_ee
					{
						OFFSET	22.5	-16.5	-42.2
						CHANNELS 3  Xrotation Yrotation Zrotation
						End Site
						{
							OFFSET	1	0	0
						}
					}
				}
			}
		}
	}
}
MOTION
Frames: 9
Frame Time: 0.02
1937.38 695.901 -1513.44 2.68845 68.5943 2.81996 0.937697 0.568164 0.244546 0.937561 0.551452 0.280205 0.94029 0.486586 0.381902 0.940495 0.540793 0.300261 -20.5261 9.99382 0.00566494 -21.1052 19.263 4.39862 -0.0 0.0 -0.0 -1.48333 23.1946 0.644225 -25.8694 -16.9363 69.9509 0.519322 -14.4271 0.0657308 -42.3335 -3.20268 4.22317 2.55508 6.34642 19.7536 -0.0 0.0 -0.0 9.71524 28.9503 -17.8911 1.83689 27.8686 -59.2873 1.37343 34.2278 -0.422904 14.8858 -0.282297 1.87524 0.909155 20.8111 2.819 0.0 0.0 0.0 21.6334 9.32663 -12.9959 5.03148 -0.23965 -0.734497 11.3827 13.7608 -1.6188 -39.2754 0.0 0.0 -0.0 0.0 -0.0 -14.745 16.7774 -7.10319 -11.8842 -0.304058 -1.79521 20.4636 -1.22747 2.80256 16.0423 -0.0 -0.0 0.0 0.0 0.0 
1919.78 694.916 -1509.16 0.650424 67.7038 5.34661 1.13444 0.681686 0.0581715 1.13418 0.676603 0.101433 1.13537 0.644833 0.228632 1.13593 0.672848 0.123919 -19.9458 9.64489 -1.20261 -20.4929 19.1948 3.02166 -0.0 0.0 -0.0 -1.37833 22.8147 0.731843 -24.3655 -17.3012 69.4925 0.496625 -13.8213 0.0601922 -42.3919 -3.20906 4.22711 2.84686 5.91817 21.6505 -0.0 0.0 -0.0 9.80382 29.7971 -17.9826 0.364305 27.7072 -59.1441 1.26793 32.1313 -0.365159 13.7823 -0.278192 1.73435 1.2143 21.9045 1.29419 0.0 0.0 0.0 22.7401 9.02814 -13.5092 3.07701 -0.138887 -0.451654 11.4711 12.7459 -1.62812 -39.5967 0.0 0.0 -0.0 0.0 -0.0 -14.6248 18.2598 -5.90193 -11.2345 -0.297113 -1.69576 19.9025 1.46091 2.74934 15.567 -0.0 -0.0 0.0 0.0 0.0 
1883.75 693.666 -1509.23 1.48314 67.2697 4.74588 1.22549 0.526679 0.112162 1.22535 0.518475 0.145449 1.22667 0.481596 0.24091 1.22696 0.513599 0.161826 -17.0344 10.1685 -1.02559 -17.4954 20.0965 2.87347 -0.0 0.0 -0.0 -1.24823 23.0757 0.95052 -24.8341 -18.9446 68.5139 0.512268 -14.2391 0.0639844 -42.4237 -3.21254 4.22925 2.84596 6.3213 21.7893 -0.0 0.0 -0.0 9.85565 29.3511 -18.1538 -1.67134 28.2361 -59.5179 1.21124 30.9631 -0.335498 12.0907 -0.266634 1.51861 1.54965 17.9489 -2.70389 0.0 0.0 0.0 21.4622 8.35074 -12.7029 -2.05507 0.079144 0.305435 11.8994 13.5501 -1.68858 -35.1518 0.0 0.0 -0.0 0.0 -0.0 -14.8615 18.4028 -5.12708 -13.7927 -0.317933 -2.08769 17.1768 5.73499 2.43801 18.7627 -0.0 -0.0 0.0 0.0 0.0 
1853.96 695.611 -1505.95 2.26072 65.8131 4.45134 1.25912 0.681789 -0.0271318 1.25886 0.682134 0.0163092 1.25903 0.666811 0.144693 1.25964 0.681294 0.0375617 -16.1111 9.85988 -0.664144 -16.4938 19.2823 2.9187 -0.0 0.0 -0.0 -1.1813 23.4173 1.09208 -24.3897 -18.5779 68.5594 0.518851 -14.4145 0.0656135 -42.1247 -3.17991 4.20905 2.85091 6.4056 21.8545 -0.0 0.0 -0.0 9.81181 29.1499 -18.0813 -4.00087 28.3251 -59.8303 1.11508 28.9145 -0.287502 13.8331 -0.27844 1.74084 1.4153 19.7693 -0.990864 0.0 0.0 0.0 21.3678 8.67554 -12.9813 -7.42887 0.233825 1.11534 14.2715 12.6769 -2.00466 -33.4857 0.0 0.0 -0.0 0.0 -0.0 -15.4144 16.5038 -4.90838 -14.4332 -0.320405 -2.18593 17.2991 5.8272 2.4549 19.7065 -0.0 -0.0 0.0 0.0 0.0 
1832.16 700.465 -1499.2 2.52315 66.4085 3.44998 1.33862 0.66076 -0.0329783 1.33837 0.66152 0.00913626 1.33845 0.648105 0.132862 1.33904 0.660954 0.0288344 -17.733 10.2353 0.720597 -18.1852 19.285 4.64681 -0.0 0.0 -0.0 -1.0494 23.0786 1.22527 -21.0489 -21.1033 68.2654 0.447024 -12.4864 0.0489037 -42.134 -3.18092 4.20968 3.22354 7.55693 24.9262 -0.0 0.0 -0.0 10.0366 29.5622 -18.5297 -5.78431 28.4085 -60.3053 0.951671 25.2402 -0.213079 12.4567 -0.269675 1.56526 1.42142 14.5222 -3.37495 0.0 0.0 0.0 19.2796 8.46629 -11.6031 -6.79274 0.219491 1.01877 15.8891 11.2796 -2.21356 -32.2299 0.0 0.0 -0.0 0.0 -0.0 -14.8157 17.1092 -4.72544 -14.9143 -0.321539 -2.25974 13.4372 9.77447 1.97668 22.8417 -0.0 -0.0 0.0 0.0 0.0 
1806.26 707.63 -1495.67 4.15927 65.8609 1.60326 1.38123 0.75597 -0.0255429 1.38092 0.756063 0.022616 1.38119 0.738574 0.163256 1.38195 0.755088 0.0445571 -18.0249 10.0771 1.53639 -18.4467 18.5533 5.38659 -0.0 0.0 -0.0 -1.1788 23.2359 1.0694 -18.8884 -22.2367 67.4068 0.386072 -10.8272 0.0365871 -41.7264 -3.13661 4.18188 3.33362 7.96271 25.8647 -0.0 0.0 -0.0 10.1624 29.46 -18.8228 -7.24242 28.7058 -61.5093 0.725883 19.7776 -0.126542 10.7517 -0.252971 1.34813 1.80694 11.7618 -7.19924 0.0 0.0 0.0 16.3805 8.16925 -10.4311 -7.33448 0.231766 1.101 14.5552 10.4531 -2.03677 -32.1091 0.0 0.0 -0.0 0.0 -0.0 -13.0951 18.9093 -4.93842 -17.7453 -0.315662 -2.69402 9.11153 7.22485 1.34588 23.7074 -0.0 -0.0 0.0 0.0 0.0 
1780.56 714.595 -1494.0 4.91748 69.0703 0.183656 1.39522 0.58491 0.242846 1.39508 0.568272 0.279574 1.39789 0.506264 0.380516 1.39813 0.560005 0.295784 -19.4482 9.52669 3.68508 -19.7836 16.4571 7.3713 -0.0 0.0 -0.0 -0.964936 23.0996 1.34467 -16.5467 -25.3 65.4381 0.34197 -9.61494 0.028761 -42.1772 -3.18563 4.21261 2.92651 11.1191 23.9948 -0.0 0.0 -0.0 10.052 29.299 -18.5972 -9.19717 29.5867 -63.1898 0.565357 15.6457 -0.0776744 7.94544 -0.211435 0.99211 2.11746 5.09108 -12.2072 0.0 0.0 0.0 12.2177 5.85989 -7.59605 -4.72011 0.16536 0.705318 17.1685 6.92858 -2.3738 -30.0503 0.0 0.0 -0.0 0.0 -0.0 -12.2776 20.4991 -6.48062 -21.1998 -0.279449 -3.22274 10.2926 4.29157 1.49501 23.4554 -0.0 -0.0 0.0 0.0 0.0 
1749.47 718.383 -1492.25 11.7229 70.573 -7.08932 0.883148 0.373782 0.227241 0.883105 0.358565 0.250565 0.884699 0.302808 0.315688 0.88473 0.348865 0.263903 -22.6694 9.6359 6.15352 -22.9932 15.7696 10.2212 -0.0 0.0 -0.0 -1.71182 22.6035 0.235097 -13.521 -27.6546 66.6884 0.489389 -13.6274 0.0584753 -41.8043 -3.14507 4.18722 3.10661 13.1895 25.9156 -0.0 0.0 -0.0 9.94545 28.244 -18.4886 -11.3455 29.0176 -63.6518 0.449099 12.5426 -0.0493534 8.62036 -0.223017 1.07754 2.41159 6.58972 -13.6048 0.0 0.0 0.0 9.51016 4.16821 -5.60494 -8.85326 0.262028 1.33209 20.424 8.3403 -2.78379 -30.0663 0.0 0.0 -0.0 0.0 -0.0 -8.79345 23.9026 -6.9877 -32.7074 0.0691204 -4.95145 3.21933 4.45793 0.479045 26.9184 -0.0 -0.0 0.0 0.0 0.0 
1730.28 724.358 -1491.26 14.489 70.2858 -10.3248 0.798299 0.37103 0.285033 0.798275 0.352141 0.308065 0.800208 0.284747 0.37125 0.800177 0.339805 0.321621 -23.4635 9.61887 7.20954 -23.7438 15.3512 11.3134 -0.0 0.0 -0.0 -1.66143 22.058 0.219022 -11.1911 -29.6171 66.4439 0.526408 -14.6156 0.0675076 -41.7519 -3.13938 4.18363 3.09678 16.0506 26.6765 -0.0 0.0 -0.0 9.73094 28.0295 -18.036 -13.0569 29.5394 -64.3968 0.407487 11.4124 -0.0407173 6.71335 -0.187699 0.836515 2.94846 3.72835 -18.5913 0.0 0.0 0.0 7.59054 3.51696 -4.2995 -11.0711 0.295188 1.67076 22.1447 8.03455 -2.99356 -30.0021 0.0 0.0 -0.0 0.0 -0.0 -7.01929 26.3045 -7.45792 -38.3491 0.365092 -5.76578 2.87424 1.45878 0.423689 28.3862 -0.0 -0.0 0.0 0.0 0.0 
